HIERARCHY
ROOT Hips
{
	OFFSET 0.000000 0.000000 0.000000 
	CHANNELS 6 Xposition Yposition Zposition Yrotation Zrotation Xrotation 
	JOINT Lumbar
	{
		OFFSET 0.000000 0.000000 0.000000 
		CHANNELS 3 Zrotation Xrotation Yrotation
		JOINT Neck
		{
			OFFSET 0.000000 0.445665 0.000000 
			CHANNELS 3 Zrotation Xrotation Yrotation
			End Site
			{
				OFFSET 0.000000 0.227535 0.000000 
			}
		}
		JOINT RightShoulder
		{
			OFFSET 0.019635 0.377685 0.194865 
			CHANNELS 3 Zrotation Xrotation Yrotation
			JOINT RightElbow
			{
				OFFSET 0.000000 -0.243375 0.000000 
				CHANNELS 2 Zrotation Yrotation
				JOINT RightWrist
				{
					OFFSET 0.000000 -0.264825 0.000000 
					CHANNELS 2 Zrotation Xrotation
					End Site
					{
						OFFSET 0.006600 -0.176220 0.000990 
					}
				}
			}
		}
		JOINT LeftShoulder
		{
			OFFSET 0.019635 0.377685 -0.194865 
			CHANNELS 3 Zrotation Xrotation Yrotation
			JOINT LeftElbow
			{
				OFFSET 0.000000 -0.243375 0.000000 
				CHANNELS 2 Zrotation Yrotation
				JOINT LeftWrist
				{
					OFFSET 0.000000 -0.264825 0.000000 
					CHANNELS 2 Zrotation Xrotation
					End Site
					{
						OFFSET 0.006600 -0.176220 -0.000990 
					}
				}
			}
		}
	}
	JOINT RightHip
	{
		OFFSET 0.052140 -0.069960 0.075570 
		CHANNELS 3 Zrotation Xrotation Yrotation
		JOINT RightKnee
		{
			OFFSET 0.000000 -0.402270 0.000000 
			CHANNELS 1 Zrotation
			JOINT RightAnkle
			{
				OFFSET 0.000000 -0.404085 0.000000 
				CHANNELS 3 Zrotation Xrotation Yrotation
				End Site
				{
					OFFSET 0.204105 -0.089430 0.008415 
				}
			}
		}
	}
	JOINT LeftHip
	{
		OFFSET 0.052140 -0.069960 -0.075570 
		CHANNELS 3 Zrotation Xrotation Yrotation
		JOINT LeftKnee
		{
			OFFSET 0.000000 -0.402270 0.000000 
			CHANNELS 1 Zrotation
			JOINT LeftAnkle
			{
				OFFSET 0.000000 -0.404085 0.000000 
				CHANNELS 3 Zrotation Xrotation Yrotation
				End Site
				{
					OFFSET 0.204105 -0.089430 -0.008415 
				}
			}
		}
	}
}
MOTION
Frames: 16
Frame Time: 0.02
0.58641 -0.31121 0.53764 -172.94003 43.87232 -6.88952 13.24512 1.17803 -4.29452 -17.15138 25.69346 -0.83079 23.17825 -21.761 60.09474 8.07229 107.28585 3.96129 7.34343 29.64829 25.77337 -64.17107 6.93835 -105.92616 10.23298 -5.15828 25.08716 -11.29075 -6.04019 -46.51151 -20.73467 -2.00096 -2.25937 30.39774 7.69566 -6.49261 -53.55036 -21.78353 2.53551 2.6557
0.58653 -0.31095 0.5376 -172.91628 43.98966 -6.81712 13.32294 1.20529 -4.29921 -17.06568 25.26791 -0.83079 23.43748 -21.75998 60.56085 8.09186 107.43515 4.1094 7.45881 30.57662 25.78812 -64.17066 7.03394 -106.77766 10.425 -4.93743 24.76097 -11.26282 -6.10659 -45.80141 -20.62878 -2.02325 -2.26847 30.16011 7.63413 -6.27721 -52.9919 -21.66567 2.57127 2.67139
0.58661 -0.31066 0.53762 -172.90351 44.09764 -6.74771 13.42361 1.27961 -4.34412 -16.9994 24.66213 -0.83079 23.75243 -21.73519 60.99575 8.11864 105.90029 4.01619 7.73737 31.50607 25.85674 -64.17009 7.28583 -107.8078 10.56633 -4.62303 24.39437 -11.20484 -6.18783 -44.96482 -20.50679 -2.05275 -2.28151 29.90014 7.59295 -6.02109 -52.304 -21.52086 2.61572 2.69094
0.5867 -0.31038 0.53761 -172.88687 44.20811 -6.67784 13.51469 1.33121 -4.37149 -16.91942 24.14702 -0.83079 24.03781 -21.71807 61.43007 8.14363 105.25168 4.04578 7.92577 32.4215 25.90363 -64.16962 7.47198 -108.68362 10.7197 -4.36423 24.04433 -11.15762 -6.26079 -44.16724 -20.39661 -2.07775 -2.29222 29.6485 7.53546 -5.80416 -51.65194 -21.39235 2.6545 2.70789
0.58681 -0.31011 0.53759 -172.86529 44.32631 -6.60359 13.60188 1.38787 -4.3955 -16.85896 23.59394 -0.83079 24.34372 -21.71435 61.92976 8.16256 104.15093 4.02811 8.17708 33.40433 25.93825 -64.16902 7.634 -109.85865 10.91976 -4.05207 23.70212 -11.124 -6.34256 -43.45069 -20.26598 -2.10847 -2.30558 29.40401 7.50541 -5.50393 -51.09773 -21.24659 2.70078 2.72859
0.58686 -0.30982 0.5376 -172.85633 44.42618 -6.53964 13.70292 1.44535 -4.43586 -16.7634 23.07733 -0.83079 24.6183 -21.67718 62.28631 8.19516 103.56342 4.04842 8.33849 34.24149 26.011 -64.16864 7.88272 -110.46571 11.01214 -3.82677 23.33288 -11.05419 -6.40825 -42.53031 -20.1757 -2.12829 -2.31388 29.13945 7.42478 -5.36274 -50.30637 -21.13032 2.7333 2.74224
0.58675 -0.30948 0.5377 -172.88391 44.47648 -6.50036 13.83503 1.49389 -4.51511 -16.55983 22.70771 -0.83079 24.80259 -21.55131 62.23529 8.271 104.88345 4.23259 8.20394 34.69497 26.18199 -64.16891 8.34933 -109.34471 10.79803 -3.88116 22.91124 -10.89426 -6.43643 -41.12356 -20.19429 -2.11962 -2.3095 28.82583 7.18896 -5.71093 -48.91869 -21.10378 2.72714 2.73649
0.58658 -0.30913 0.53782 -172.92311 44.50889 -6.47192 13.9805 1.54165 -4.60883 -16.32173 22.38081 -0.83079 24.95138 -21.39294 62.04424 8.35909 106.75749 4.46219 7.97507 34.9968 26.38858 -64.16938 8.89494 -107.66572 10.48081 -4.02331 22.4613 -10.69838 -6.44998 -39.50649 -20.25927 -2.09728 -2.29812 28.49252 6.90355 -6.21306 -47.29144 -21.10787 2.7065 2.72335
0.58642 -0.30879 0.53794 -172.9541 44.55019 -6.44058 14.12118 1.58964 -4.69372 -16.10335 22.03302 -0.83079 25.10971 -21.2508 61.92982 8.43689 108.31766 4.66979 7.79533 35.35481 26.57497 -64.16973 9.39415 -106.32035 10.22488 -4.11371 22.01673 -10.51706 -6.45756 -37.95763 -20.3023 -2.08132 -2.29021 28.16801 6.64816 -6.61824 -45.75725 -21.09645 2.69155 2.71287
0.5863 -0.30843 0.53806 -172.9976 44.58776 -6.40092 14.25787 1.6398 -4.78961 -15.8677 21.68496 -0.83079 25.29777 -21.1017 61.75997 8.53482 110.07695 4.87465 7.59569 35.76791 26.77999 -64.17019 9.94392 -104.65051 9.90715 -4.24959 21.60362 -10.34192 -6.50126 -36.52503 -20.33216 -2.07244 -2.28682 27.84418 6.3625 -7.13583 -44.28771 -21.08951 2.6808 2.70529
0.5861 -0.30811 0.53816 -173.01794 44.62923 -6.38096 14.40497 1.68463 -4.86537 -15.66074 21.35016 -0.83079 25.41481 -20.95965 61.6722 8.59368 111.58135 5.09934 7.41182 36.02883 26.95425 -64.17049 10.40403 -103.51262 9.69325 -4.31451 21.11719 -10.14615 -6.48826 -34.79554 -20.42109 -2.03602 -2.26531 27.51349 6.12703 -7.45654 -42.62526 -21.08245 2.65762 2.69007
0.58566 -0.30791 0.53821 -172.96907 44.68385 -6.41404 14.58391 1.71485 -4.88291 -15.53164 21.04087 -0.83079 25.34333 -20.84541 61.84918 8.54148 112.19152 5.36626 7.30463 35.91765 27.03222 -64.17032 10.60605 -104.0595 9.80062 -4.14705 20.45237 -9.89908 -6.12708 -32.3591 -20.48064 -2.00932 -2.25631 27.17754 6.04914 -7.19955 -40.51463 -21.05973 2.60494 2.65524
0.58513 -0.30775 0.53823 -172.89692 44.74352 -6.46629 14.77149 1.7395 -4.8793 -15.43442 20.74462 -0.83079 25.20149 -20.73946 62.11279 8.44958 112.54131 5.65272 7.21436 35.65645 27.07824 -64.16999 10.71276 -105.14702 10.01463 -3.90804 19.71392 -9.63328 -5.74229 -29.62447 -20.62722 -1.94106 -2.21879 26.83358 6.02188 -6.74214 -38.2136 -21.04119 2.54017 2.61388
0.58467 -0.30757 0.53827 -172.83688 44.80212 -6.50895 14.95089 1.76654 -4.88462 -15.32886 20.44352 -0.83079 25.09229 -20.62954 62.33466 8.37588 113.05883 5.93272 7.1083 35.45666 27.14031 -64.16976 10.85642 -105.93188 10.1738 -3.71253 18.99541 -9.37817 -5.50056 -26.98146 -20.85886 -1.83637 -2.15331 26.48791 5.96712 -6.36992 -35.98385 -21.02124 2.47978 2.57459
0.58412 -0.30738 0.53831 -172.77059 44.85453 -6.55583 15.14901 1.79428 -4.89345 -15.19585 20.13859 -0.83079 24.97914 -20.51921 62.56255 8.30175 113.39964 6.20514 7.03127 35.28017 27.19712 -64.16944 11.02949 -106.93071 10.35587 -3.47517 18.32409 -9.11235 -4.71367 -24.49927 -20.58544 -1.96021 -2.25682 26.16516 5.93047 -6.01363 -33.81147 -20.98484 2.42277 2.53528
0.58372 -0.30723 0.53832 -172.7119 44.92177 -6.59815 15.30965 1.81912 -4.88963 -15.12843 19.84502 -0.83079 24.85788 -20.41228 62.79913 8.21916 114.02262 6.49594 6.90151 35.0215 27.25692 -64.16925 11.118 -107.62851 10.51739 -3.30495 17.54853 -8.86519 -5.03925 -21.63548 -21.3597 -1.60403 -2.00611 25.79174 5.86764 -5.59247 -31.47574 -21.00264 2.35706 2.49905
